<svg width="34" height="34" viewBox="0 0 34 34" xmlns="http://www.w3.org/2000/svg">
    <path d="M17 0c9.3888 0 17 7.6112 17 17s-7.6112 17-17 17S0 26.3888 0 17 7.6112 0 17 0z" fill="#502EC2"/>
    <path d="M17 5l-4 4 4 4v-3c3.859 0 7 3.14 7 7 0 .88-.1708 1.72-.4688 2.496l1.5157 1.5138C25.6519 19.8008 26 18.442 26 17c0-4.962-4.037-9-9-9V5zm-8.0469 7.9902C8.3481 14.1992 8 15.558 8 17c0 4.962 4.037 9 9 9v3l4-4-4-4v3c-3.859 0-7-3.14-7-7 0-.88.1707-1.72.4688-2.496L8.953 12.9901z" fill="#FFF"/>
</svg>
