<svg width="34" height="34" viewBox="0 0 34 34" xmlns="http://www.w3.org/2000/svg">
    <rect fill="#502EC2" width="34" height="34" rx="17"/>
    <path d="M13.1756 23.627a.85.85 0 0 1-.8512 1.4716C9.4554 23.439 7.65 20.3763 7.65 17c0-3.3763 1.8053-6.439 4.6744-8.0986a.85.85 0 0 1 .8512 1.4715C10.8266 11.7317 9.35 14.2368 9.35 17c0 2.7632 1.4766 5.2683 3.8256 6.627zm7.6488-13.254a.85.85 0 1 1 .8512-1.4716C24.5446 10.561 26.35 13.6237 26.35 17c0 3.3763-1.8053 6.439-4.6744 8.0986a.85.85 0 1 1-.8512-1.4715C23.1734 22.2683 24.65 19.7632 24.65 17c0-2.7632-1.4766-5.2683-3.8256-6.627z" fill="#FFF"/>
    <path d="M14.8758 20.6843a.85.85 0 0 1-.8516 1.4714C12.1988 21.0992 11.05 19.1492 11.05 17c0-2.1492 1.1488-4.0992 2.9742-5.1557a.85.85 0 0 1 .8516 1.4714C13.5703 14.0712 12.75 15.4637 12.75 17c0 1.5364.8203 2.9288 2.1258 3.6843zm4.2484-7.3686a.85.85 0 1 1 .8516-1.4714C21.8012 12.9008 22.95 14.8508 22.95 17c0 2.1492-1.1488 4.0992-2.9742 5.1557a.85.85 0 0 1-.8516-1.4714C20.4297 19.9288 21.25 18.5363 21.25 17c0-1.5364-.8203-2.9288-2.1258-3.6843z" fill="#FFF"/>
    <circle fill="#FFF" cx="17" cy="17" r="1"/>
</svg>
