<?xml version="1.0" encoding="UTF-8"?>
<svg width="34px" height="34px" viewBox="0 0 34 34" version="1.1" xmlns="http://www.w3.org/2000/svg" xmlns:xlink="http://www.w3.org/1999/xlink">
    <!-- Generator: Sketch 55.1 (78136) - https://sketchapp.com -->
    <title>ic_create_coin</title>
    <desc>Created with Sketch.</desc>
    <g id="ic_create_coin" stroke="none" stroke-width="1" fill="none" fill-rule="evenodd">
        <rect id="Rectangle" fill="#502EC2" fill-rule="nonzero" x="0" y="0" width="34" height="34" rx="17"></rect>
        <path d="M16.15,17.85 L14.11,17.85 C13.640558,17.85 13.26,17.469442 13.26,17 C13.26,16.530558 13.640558,16.15 14.11,16.15 L16.15,16.15 L16.15,14.11 C16.15,13.640558 16.530558,13.26 17,13.26 C17.469442,13.26 17.85,13.640558 17.85,14.11 L17.85,16.15 L19.89,16.15 C20.359442,16.15 20.74,16.530558 20.74,17 C20.74,17.469442 20.359442,17.85 19.89,17.85 L17.85,17.85 L17.85,19.89 C17.85,20.359442 17.469442,20.74 17,20.74 C16.530558,20.74 16.15,20.359442 16.15,19.89 L16.15,17.85 Z M17,26.35 C11.8361376,26.35 7.65,22.1638624 7.65,17 C7.65,11.8361376 11.8361376,7.65 17,7.65 C22.1638624,7.65 26.35,11.8361376 26.35,17 C26.35,22.1638624 22.1638624,26.35 17,26.35 Z M17,24.65 C21.2249783,24.65 24.65,21.2249783 24.65,17 C24.65,12.7750217 21.2249783,9.35 17,9.35 C12.7750217,9.35 9.35,12.7750217 9.35,17 C9.35,21.2249783 12.7750217,24.65 17,24.65 Z" id="Combined-Shape" fill="#FFFFFF" fill-rule="nonzero"></path>
    </g>
</svg>