<svg width="34" height="34" viewBox="0 0 34 34" xmlns="http://www.w3.org/2000/svg">
    <rect fill="#502EC2" width="34" height="34" rx="17"/>
    <path d="M10.0263 11.8283a3.2635 3.2635 0 0 1 2.5537-1.2242 3.2635 3.2635 0 0 1 2.5537 1.2242l1.518-1.219-1.518 1.219a3.211 3.211 0 0 1 .7074 2.0144c0 .247-.0278.4874-.0805.7185l1.9042.436-1.9042-.436c-.2217.9718-.8833 1.7777-1.766 2.2003l.8551 1.7386-.8551-1.7386a3.2669 3.2669 0 0 1-1.4146.3198 3.2669 3.2669 0 0 1-1.4146-.3198l-.8551 1.7386.8551-1.7386c-.8827-.4226-1.5443-1.2285-1.766-2.2003l-1.9042.436 1.9042-.436a3.2278 3.2278 0 0 1-.0805-.7185 3.211 3.211 0 0 1 .7074-2.0144l-1.518-1.219 1.518 1.219zm2.5537-1.404V8.67v1.7542zM21.08 23.1982c-1.4299 0-2.589-1.1481-2.589-2.5644 0-1.4163 1.1591-2.5644 2.589-2.5644s2.589 1.1481 2.589 2.5644c0 1.4163-1.1591 2.5644-2.589 2.5644zm0-5.1288V15.64v2.4294zm2.03.9726l1.906-1.5289-1.906 1.529zm.4948 2.1595l2.3899.5465-2.39-.5465zm-1.407 1.7454l1.0752 2.1835-1.0752-2.1835zm-2.2356 0l-1.0752 2.1835 1.0752-2.1835zm-1.407-1.7454l-2.3899.5465 2.39-.5465zm.4949-2.1595l-1.9062-1.5289 1.9062 1.529z" stroke="#F9F9F9" stroke-width="1.7" stroke-linecap="round" stroke-linejoin="round" fill="none"/>
</svg>
